<?xml version="1.0" encoding="UTF-8"?>
<svg xmlns="http://www.w3.org/2000/svg" xmlns:xlink="http://www.w3.org/1999/xlink" width="193pt" height="193pt" viewBox="0 0 193 193" version="1.1">
<g id="surface1">
<path style=" stroke:none;fill-rule:evenodd;fill:rgb(100%,100%,100%);fill-opacity:1;" d="M 0 0.242188 L 192.757813 0.242188 L 192.757813 193 L 0 193 L 0 0.242188 "/>
<path style=" stroke:none;fill-rule:evenodd;fill:rgb(13.699341%,12.199402%,12.5%);fill-opacity:1;" d="M 137.628906 94.417969 C 137.117188 110.074219 132.515625 125.277344 118.367188 132.15625 C 115.257813 133.664063 111.984375 134.476563 108.414063 135.152344 C 103.570313 136.0625 96.949219 135.472656 92.054688 134.933594 C 85.1875 134.167969 78.378906 133.296875 72.164063 131.234375 C 66.636719 129.394531 61.539063 127.375 56.890625 123.796875 C 55.839844 122.984375 54.707031 121.875 53.875 120.800781 C 53.386719 120.167969 52.054688 117.738281 51.40625 117.503906 C 50.636719 117.226563 49.191406 117.488281 48.445313 117.648438 C 43.757813 118.640625 39.984375 121.621094 37.148438 125.546875 C 31.425781 133.441406 29.589844 144.832031 34.214844 154.058594 C 36.128906 157.882813 39.875 161.039063 43.503906 163.039063 C 49.984375 166.613281 57.691406 167.613281 65.53125 168.484375 C 79.246094 170 93.386719 170.933594 108.082031 170.933594 C 109.058594 170.484375 113.289063 170.757813 114.667969 170.757813 C 115.65625 170.359375 117.421875 170.582031 118.582031 170.582031 C 119.21875 170.257813 120.628906 170.402344 121.429688 170.402344 C 121.976563 170.125 123.066406 170.226563 123.746094 170.226563 C 124.234375 170.003906 125.101563 170.046875 125.703125 170.046875 C 126.238281 169.988281 126.769531 169.929688 127.304688 169.871094 C 127.722656 169.808594 128.140625 169.753906 128.550781 169.691406 C 129.011719 169.4375 129.914063 169.339844 130.507813 169.339844 C 131.332031 169.132813 132.15625 168.925781 132.972656 168.722656 C 134.398438 168.34375 135.894531 167.984375 137.261719 167.535156 C 143.929688 165.316406 150.433594 161.621094 154.800781 155.59375 C 158.738281 150.148438 160.796875 143.96875 161.140625 136.671875 C 161.980469 118.703125 152.535156 102.914063 137.628906 94.417969 Z M 105.234375 60.15625 C 104.410156 60.304688 103.585938 60.453125 102.761719 60.601563 C 101.21875 60.921875 99.636719 61.398438 98.351563 62.203125 C 93.140625 65.433594 91.789063 73.003906 91.59375 79.152344 C 91.816406 81.042969 92.042969 82.933594 92.265625 84.828125 C 92.515625 87.101563 93.257813 89.164063 93.589844 91.40625 C 93.984375 94.085938 93.945313 100.980469 91.867188 102.558594 C 90.0625 103.910156 87.457031 102.542969 87.207031 100.4375 C 87.386719 98.964844 87.578125 97.488281 87.761719 96.011719 C 87.882813 93.316406 87.460938 90.851563 86.886719 88.5625 C 86.765625 88.078125 86.570313 86.914063 86.066406 86.691406 C 85.148438 86.285156 81.820313 87.253906 80.835938 87.445313 C 71.035156 89.363281 58.796875 94.914063 56.65625 105.78125 C 56.136719 108.371094 55.769531 111.769531 56.757813 114.246094 C 57.878906 117.09375 60.597656 119.394531 63.167969 120.949219 C 74.589844 127.839844 90.816406 129.570313 105.765625 129.570313 C 106.300781 129.511719 106.835938 129.453125 107.367188 129.394531 C 107.726563 129.332031 108.082031 129.277344 108.4375 129.214844 C 108.792969 129.15625 109.148438 129.097656 109.503906 129.039063 C 110.207031 128.832031 110.914063 128.628906 111.613281 128.417969 C 112.570313 128.082031 113.527344 127.75 114.476563 127.417969 C 119.664063 125.171875 123.828125 121.097656 126.675781 116.199219 C 135.214844 101.488281 133.308594 70.519531 117.109375 62.019531 C 113.710938 60.234375 109.671875 60.15625 105.234375 60.15625 Z M 106.300781 54.121094 C 109.605469 54.121094 112.710938 54.285156 115.523438 55.101563 C 124.992188 57.832031 132.082031 66.625 134.730469 75.789063 C 135.453125 78.308594 136.078125 80.816406 136.644531 83.429688 C 136.882813 84.554688 136.785156 86.304688 137.394531 87.234375 C 137.886719 87.988281 139.164063 88.390625 139.886719 88.828125 C 141.546875 89.890625 143.203125 90.957031 144.859375 92.015625 C 149.367188 95.171875 153.433594 99.324219 156.882813 103.625 C 166.628906 115.777344 170.152344 135.0625 164.285156 150.679688 C 161.226563 158.800781 154.460938 165.988281 146.667969 169.976563 C 135.898438 175.480469 124.953125 176.207031 111.464844 176.628906 C 94.925781 177.136719 78.511719 175.878906 63.042969 174.164063 C 51.972656 172.933594 41.382813 170.769531 33.605469 163.011719 C 21.25 150.6875 24.210938 129.691406 35.769531 118.164063 C 38.605469 115.328125 42.972656 112.171875 47.203125 112.171875 C 47.6875 111.90625 48.535156 111.816406 49.164063 111.816406 C 49.40625 111.691406 50.050781 111.785156 50.050781 111.460938 L 50.230469 111.460938 C 50.230469 95.835938 60.125 87.722656 73.335938 83.335938 C 75.441406 82.628906 77.710938 82.03125 79.945313 81.585938 C 80.773438 81.421875 81.710938 81.105469 82.628906 81.105469 C 83.121094 80.832031 84.117188 80.75 84.761719 80.75 C 85.058594 80.6875 85.359375 80.632813 85.652344 80.570313 C 85.652344 70.652344 88.226563 59.796875 97.539063 55.988281 C 99.085938 55.351563 101.078125 54.652344 102.917969 54.652344 C 103.273438 54.589844 103.632813 54.535156 103.988281 54.476563 C 104.761719 54.359375 105.53125 54.242188 106.300781 54.121094 "/>
<path style="fill:none;stroke-width:32.2406;stroke-linecap:butt;stroke-linejoin:miter;stroke:rgb(13.699341%,12.199402%,12.5%);stroke-opacity:1;stroke-miterlimit:2.6131;" d="M 1374.488483 987.110466 C 1369.37799 830.343071 1323.422566 678.112856 1182.123293 609.233769 C 1151.070223 594.135911 1118.417685 586.000277 1082.722259 579.233621 C 1034.348129 570.120147 968.223814 576.026304 919.342536 581.38487 C 850.760504 589.05114 782.763642 597.773477 720.696513 618.464583 C 665.495389 636.887099 614.585518 657.108841 568.161958 692.936919 C 557.667893 701.072552 546.354588 712.18082 538.045161 722.937066 C 533.168736 729.273473 519.865851 753.602146 513.389959 755.948963 C 505.704714 758.72603 491.270498 756.105417 483.819322 754.501759 C 437.005648 744.566899 399.32064 714.723206 370.998367 675.374902 C 313.846673 596.365387 295.511318 482.310067 341.700809 389.923693 C 360.816393 351.631457 398.228321 320.027651 434.469907 300.001477 C 499.228823 264.212513 576.159294 254.199426 654.494175 245.477089 C 791.424172 230.301003 932.645422 220.913734 1079.40629 220.913734 C 1089.159139 225.411801 1131.40848 222.712961 1145.179502 222.712961 C 1155.049385 226.70255 1172.682536 224.473074 1184.26892 224.473074 C 1190.627778 227.719504 1204.710891 226.2723 1212.747239 226.2723 C 1218.169823 229.049368 1229.054002 228.032413 1235.841985 228.032413 C 1240.718409 230.26189 1249.378939 229.83164 1255.386693 229.83164 C 1260.731255 230.418344 1266.075816 230.965935 1271.381365 231.591753 C 1275.555585 232.217571 1279.729804 232.765162 1283.826 233.39098 C 1288.468356 235.933365 1297.440977 236.950319 1303.370709 236.950319 C 1311.602114 238.984227 1319.833518 241.057249 1327.9869 243.091158 C 1342.226059 246.885179 1357.167423 250.483632 1370.821411 254.981699 C 1437.413863 277.198236 1502.367836 314.199722 1545.982575 374.512926 C 1585.306062 429.076428 1605.865067 490.954177 1609.337081 564.018422 C 1617.724531 743.941081 1523.394978 902.038339 1374.488483 987.110466 Z M 1050.966983 1330.17604 C 1042.735579 1328.689722 1034.504175 1327.164291 1026.27277 1325.756201 C 1010.863269 1322.50977 995.063654 1317.737908 982.228905 1309.680502 C 930.187704 1277.333537 916.689761 1201.531339 914.739192 1139.966499 C 916.962841 1121.035506 919.225502 1102.104513 921.449152 1083.134407 C 923.945881 1060.370279 931.358046 1039.718287 934.674015 1017.267068 C 938.614165 990.435124 938.224051 921.360468 917.469989 905.597679 C 899.446725 892.064366 873.426124 905.754133 870.929395 926.836375 C 872.723919 941.58221 874.635478 956.367159 876.469013 971.152108 C 877.678366 998.140507 873.465136 1022.821202 867.730461 1045.741785 C 866.521107 1050.591874 864.570538 1062.247733 859.538068 1064.477209 C 850.37039 1068.545026 817.132681 1058.883961 807.30181 1056.92828 C 709.422219 1037.684378 587.199519 982.143036 565.821274 873.328941 C 560.632759 847.39661 556.965687 813.367759 566.83557 788.569723 C 578.031841 760.055893 605.183772 737.01797 630.85327 721.450749 C 744.922589 652.45432 906.975924 635.126986 1056.272533 635.126986 C 1061.617094 635.71369 1066.961655 636.300395 1072.306216 636.887099 C 1075.856253 637.512917 1079.40629 638.060508 1082.956327 638.686326 C 1086.506364 639.27303 1090.056401 639.859734 1093.606438 640.446438 C 1100.628489 642.51946 1107.689552 644.553369 1114.672591 646.665504 C 1124.230383 650.029276 1133.788175 653.353934 1143.306955 656.678591 C 1195.075077 679.168924 1236.661224 719.964431 1265.100531 769.012912 C 1350.37944 916.314811 1331.34188 1226.407602 1169.561624 1311.518843 C 1135.621711 1329.393768 1095.283928 1330.17604 1050.966983 1330.17604 Z M 1061.617094 1390.606585 C 1094.620734 1390.606585 1125.634793 1388.963813 1153.722998 1380.789066 C 1248.28662 1353.448645 1319.092302 1265.403883 1345.542027 1173.643327 C 1352.798147 1148.415041 1359.000959 1123.304096 1364.657611 1097.137083 C 1367.037306 1085.87236 1366.062021 1068.388571 1372.147799 1059.040416 C 1377.063235 1051.491487 1389.819961 1047.462784 1397.037069 1043.082058 C 1413.616912 1032.443153 1430.157743 1021.765135 1446.698575 1011.165343 C 1491.717725 979.561537 1532.328587 937.983757 1566.775649 894.91966 C 1664.10908 773.237183 1699.297358 580.133234 1640.702243 423.756975 C 1610.15632 342.400643 1542.588584 270.470693 1464.760851 230.535685 C 1357.206435 175.424592 1247.896506 168.149459 1113.190158 163.925188 C 948.015912 158.840417 784.09003 171.435003 629.604905 188.605883 C 519.046611 200.926674 413.286719 222.59562 335.615032 300.275272 C 212.221989 423.678748 241.792627 633.914464 357.227345 749.338761 C 385.549618 777.73525 429.164357 809.339056 471.413698 809.339056 C 476.251111 811.998782 484.716584 812.898396 490.997418 812.898396 C 493.416125 814.150032 499.892016 813.211305 499.892016 816.457735 L 501.647529 816.457735 C 501.647529 972.912221 600.463393 1054.151213 732.399931 1098.07581 C 753.427073 1105.155376 776.092694 1111.13976 798.407212 1115.598713 C 806.677627 1117.241485 816.040362 1120.409688 825.20804 1120.409688 C 830.123476 1123.147641 840.071381 1123.969028 846.508262 1123.969028 C 849.473128 1124.594845 852.477005 1125.142436 855.40286 1125.768254 C 855.40286 1225.077739 881.150381 1333.774493 974.114535 1371.910274 C 989.563047 1378.285795 1009.458859 1385.287133 1027.833226 1385.287133 C 1031.383263 1385.912951 1034.972311 1386.460541 1038.522348 1387.086359 C 1046.246604 1388.220654 1053.931849 1389.394063 1061.617094 1390.606585 Z M 1061.617094 1390.606585 " transform="matrix(0.100131,0,0,-0.0998693,0,193)"/>
<path style=" stroke:none;fill-rule:evenodd;fill:rgb(13.699341%,12.199402%,12.5%);fill-opacity:1;" d="M 150.34375 54.289063 C 151.738281 54.289063 152.867188 55.367188 152.867188 56.699219 L 152.867188 78.210938 C 152.867188 79.542969 151.738281 80.621094 150.34375 80.621094 C 148.949219 80.621094 147.816406 79.542969 147.816406 78.210938 L 147.816406 56.699219 C 147.816406 55.367188 148.949219 54.289063 150.34375 54.289063 "/>
<path style="fill:none;stroke-width:32.2406;stroke-linecap:butt;stroke-linejoin:miter;stroke:rgb(13.699341%,12.199402%,12.5%);stroke-opacity:1;stroke-miterlimit:2.6131;" d="M 1501.470574 1388.9247 C 1515.397642 1388.9247 1526.710946 1378.12934 1526.710946 1364.791595 L 1526.710946 1149.392881 C 1526.710946 1136.055137 1515.397642 1125.220663 1501.470574 1125.220663 C 1487.543506 1125.220663 1476.230201 1136.055137 1476.230201 1149.392881 L 1476.230201 1364.791595 C 1476.230201 1378.12934 1487.543506 1388.9247 1501.470574 1388.9247 Z M 1501.470574 1388.9247 " transform="matrix(0.100131,0,0,-0.0998693,0,193)"/>
<path style=" stroke:none;fill-rule:evenodd;fill:rgb(13.699341%,12.199402%,12.5%);fill-opacity:1;" d="M 109.40625 16.503906 C 110.800781 16.503906 111.929688 17.582031 111.929688 18.914063 L 111.929688 40.425781 C 111.929688 41.757813 110.800781 42.835938 109.40625 42.835938 C 108.011719 42.835938 106.878906 41.757813 106.878906 40.425781 L 106.878906 18.914063 C 106.878906 17.582031 108.011719 16.503906 109.40625 16.503906 "/>
<path style="fill:none;stroke-width:32.2406;stroke-linecap:butt;stroke-linejoin:miter;stroke:rgb(13.699341%,12.199402%,12.5%);stroke-opacity:1;stroke-miterlimit:2.6131;" d="M 1092.631153 1767.27076 C 1106.558221 1767.27076 1117.832514 1756.475401 1117.832514 1743.137656 L 1117.832514 1527.738942 C 1117.832514 1514.401197 1106.558221 1503.605838 1092.631153 1503.605838 C 1078.704085 1503.605838 1067.390781 1514.401197 1067.390781 1527.738942 L 1067.390781 1743.137656 C 1067.390781 1756.475401 1078.704085 1767.27076 1092.631153 1767.27076 Z M 1092.631153 1767.27076 " transform="matrix(0.100131,0,0,-0.0998693,0,193)"/>
<path style=" stroke:none;fill-rule:evenodd;fill:rgb(13.699341%,12.199402%,12.5%);fill-opacity:1;" d="M 69.214844 47.019531 C 70.609375 47.019531 71.742188 48.097656 71.742188 49.429688 L 71.742188 70.941406 C 71.742188 72.273438 70.609375 73.351563 69.214844 73.351563 C 67.820313 73.351563 66.6875 72.273438 66.6875 70.941406 L 66.6875 49.429688 C 66.6875 48.097656 67.820313 47.019531 69.214844 47.019531 "/>
<path style="fill:none;stroke-width:32.2406;stroke-linecap:butt;stroke-linejoin:miter;stroke:rgb(13.699341%,12.199402%,12.5%);stroke-opacity:1;stroke-miterlimit:2.6131;" d="M 691.242909 1461.715149 C 705.169977 1461.715149 716.483282 1450.91979 716.483282 1437.582045 L 716.483282 1222.183331 C 716.483282 1208.845586 705.169977 1198.011113 691.242909 1198.011113 C 677.315841 1198.011113 666.002537 1208.845586 666.002537 1222.183331 L 666.002537 1437.582045 C 666.002537 1450.91979 677.315841 1461.715149 691.242909 1461.715149 Z M 691.242909 1461.715149 " transform="matrix(0.100131,0,0,-0.0998693,0,193)"/>
</g>
</svg>
